<?xml version="1.0" encoding="UTF-8" standalone="no"?><!-- Generator: Gravit.io --><svg xmlns="http://www.w3.org/2000/svg" xmlns:xlink="http://www.w3.org/1999/xlink" style="isolation:isolate" viewBox="100 180.845 600 438.31" width="600pt" height="438.31pt"><g><path d=" M 600.031 397.078 L 622.077 397.078 C 626.378 397.078 629.869 393.586 629.869 389.286 L 629.869 389.286 C 629.869 384.985 626.378 381.494 622.077 381.494 L 557.79 381.494 C 553.489 381.494 549.998 384.985 549.998 389.286 L 549.998 389.286 C 549.998 393.586 553.489 397.078 557.79 397.078 L 578.92 397.078 Q 578.456 399.144 577.27 402.922 Q 570.16 420.728 561.686 426.299 C 553.212 431.87 550.655 431.42 544.153 432.143 Q 537.652 432.865 509.089 420.454 L 481.816 399.026 L 415.583 338.637 Q 401.091 328.491 392.206 325 C 383.321 321.509 376.069 319.426 366.882 319.156 C 357.694 318.886 347.161 320.322 337.661 325 Q 328.161 329.679 318.181 340.585 L 310.388 350.325 L 306.492 354.221 Q 309.372 354.968 310.388 356.169 C 311.405 357.37 303.866 360.153 302.596 363.961 Q 301.327 367.769 302.596 371.753 Q 307.932 379.291 312.336 381.494 C 316.741 383.696 315.962 383.667 318.181 383.442 C 320.4 383.217 322.555 381.595 324.025 379.546 C 325.495 377.496 320.659 370.696 322.077 365.909 Q 323.494 361.123 329.869 356.169 Q 341.152 344.837 349.349 342.533 C 357.546 340.228 362.256 340.185 368.83 342.533 C 375.404 344.881 381.746 352.584 386.362 360.065 C 390.978 367.546 393.858 374.668 394.154 383.442 C 394.45 392.215 392.471 396.283 390.258 402.922 Q 388.045 409.561 366.882 437.987 L 322.077 484.74 Q 312.67 492.404 306.492 494.48 C 300.315 496.556 296.388 497.727 290.908 498.376 C 285.428 499.025 279.592 498.847 273.376 498.376 Q 267.159 497.905 257.791 494.48 L 246.103 488.636 L 236.363 482.792 L 234.415 488.636 L 216.882 473.052 Q 216.765 483.386 214.934 488.636 Q 213.104 493.886 199.35 508.116 Q 193.491 513.883 191.558 517.856 Q 189.625 521.83 189.61 537.337 L 189.61 549.025 L 205.194 523.701 L 216.882 515.908 Q 219.169 513.759 220.779 513.96 C 222.388 514.162 220.478 519.026 220.779 521.753 Q 221.079 524.479 273.376 549.025 Q 298.6 555.133 312.336 552.921 Q 326.073 550.709 335.713 545.129 L 403.894 504.22 Q 410.02 501.123 413.635 500.324 Q 417.25 499.525 448.699 515.908 L 536.361 560.713 L 542.205 552.921 L 553.894 564.609 L 553.894 552.921 Q 578.314 536.494 583.114 521.753 Q 587.915 507.011 583.114 490.584 Q 572.269 515.18 559.738 521.753 C 547.207 528.325 517.27 512.23 497.4 500.324 C 477.531 488.418 480.12 485.574 468.18 478.896 Q 456.239 472.218 442.855 469.155 L 419.479 463.311 L 433.115 449.675 Q 452.172 447.894 462.336 449.675 Q 472.499 451.456 503.245 469.155 Q 520.674 474.641 530.517 475 C 540.361 475.358 552.912 474.501 563.634 469.155 Q 574.355 463.81 583.114 453.571 Q 593.597 439.228 596.751 430.195 Q 599.904 421.162 600.031 397.078 Z " fill="rgb(255,255,255)"/><path d=" M 534.413 213.962 L 542.205 221.754 L 542.205 360.065 L 534.413 360.065 L 534.413 213.962 Z " fill="rgb(255,255,255)"/><path d=" M 673.933 223.702 C 674.464 222.024 674.908 220.286 674.908 218.507 C 674.908 204.172 655.821 192.534 633.512 192.534 C 611.203 192.534 591.143 204.172 591.143 218.507 C 591.143 220.286 590.611 222.024 591.143 223.702 L 600.647 223.702 C 602.688 210.834 617.078 200.845 634.666 200.845 C 652.254 200.845 663.126 210.834 665.168 223.702 L 673.933 223.702 Z " fill="rgb(255,255,255)"/><path d=" M 688.308 215.91 L 641.792 215.91 L 641.792 211.785 L 641.792 211.785 C 639.75 199.011 628.878 189.096 611.29 189.096 C 594.044 189.096 584.697 197.16 577.27 210.754 L 577.27 215.91 L 538.309 215.91 L 538.309 210.754 L 567.56 210.754 C 567.43 209.41 567.766 208.032 567.766 206.628 C 567.766 192.398 587.826 180.845 610.135 180.845 C 632.444 180.845 651.532 192.398 651.532 206.628 C 651.532 208.032 651.868 209.41 651.739 210.754 L 690.256 210.754 Q 700.179 219.441 699.997 219.806 Q 699.814 220.171 699.997 221.754 L 694.153 221.754 L 688.308 215.91 Z " fill="rgb(255,255,255)"/><path d=" M 446.399 308.724 C 440.527 315.78 437.011 324.853 437.011 334.741 C 437.011 357.319 455.342 375.649 477.92 375.649 C 500.498 375.649 518.829 357.319 518.829 334.741 C 518.829 313.508 502.617 296.031 481.907 294.024 L 485.712 291.884 L 481.816 289.936 Q 473.047 282.138 472.076 280.195 C 471.105 278.253 470.621 278.791 470.128 274.351 C 469.635 269.912 473.026 266.709 474.024 262.663 C 475.022 258.617 475.635 255.072 475.972 250.975 C 476.309 246.877 476.65 243.582 475.972 239.287 C 475.294 234.991 474.591 231.79 472.076 227.598 C 469.561 223.406 465.522 219.367 462.336 217.858 C 459.15 216.349 456.323 215.598 452.595 215.91 C 448.868 216.222 446.686 217.639 442.855 219.806 C 439.024 221.973 433.681 225.597 433.115 227.598 C 432.549 229.599 430.842 230.79 433.115 233.442 C 435.388 236.095 439.054 230.765 440.907 231.494 Q 442.76 232.224 444.803 235.391 Q 447.289 237.674 446.751 239.287 C 446.214 240.899 444.442 241.235 442.855 241.235 C 441.268 241.235 442.907 241.081 438.959 239.287 C 435.011 237.492 430.67 235.876 427.271 235.391 C 423.872 234.905 421.688 235.08 417.531 235.391 C 413.373 235.701 411.434 235.279 405.842 237.339 C 400.251 239.398 395.904 242.928 392.206 247.079 C 388.509 251.229 386.103 254.71 384.414 260.715 C 382.725 266.72 383.648 273.311 384.414 278.247 C 385.18 283.184 385.395 287.3 388.31 291.884 C 391.225 296.468 393.119 298.008 399.998 301.624 C 406.878 305.24 417.096 301.307 421.427 305.52 C 425.757 309.733 425.411 319.961 427.271 321.104 Q 429.131 322.247 433.115 323.052 Q 432.074 322.692 433.115 317.208 Q 434.156 311.724 442.855 305.52 Q 444.187 302.717 446.751 303.572 C 449.082 304.349 445.606 306.442 446.399 308.724 Z " fill="rgb(255,255,255)"/><path d=" M 100 466.564 Q 112.799 517.953 127.273 542.538 C 141.746 567.123 144.856 571.361 158.441 583.447 C 172.026 595.532 181.353 600.547 195.454 606.823 C 209.555 613.1 221.462 616.696 236.363 618.512 C 251.263 620.327 270.713 618.07 288.96 614.615 C 307.207 611.161 316.004 608.596 329.869 602.927 C 343.734 597.258 361.141 585.783 376.622 575.655 C 392.103 565.527 398.475 556.708 413.635 554.226 C 428.794 551.745 430.022 552.073 438.959 552.278 C 447.896 552.483 451.68 552.9 458.44 554.226 C 465.2 555.552 471.435 557.005 477.92 560.07 Q 484.405 563.135 507.141 585.395 Q 504.075 579.603 503.245 577.603 C 502.414 575.602 491.898 562.381 483.764 556.174 C 475.63 549.968 470.489 547.276 462.336 544.486 Q 454.182 541.695 438.959 540.59 Q 421.186 539.044 411.687 540.59 Q 402.187 542.136 380.518 552.278 L 357.141 565.914 Q 343.494 573.983 335.713 577.603 Q 327.932 581.223 316.233 585.395 Q 301.287 591.168 292.856 593.187 C 284.426 595.206 272.718 596.497 261.687 597.083 C 250.657 597.669 246.501 597.848 238.311 597.083 C 230.121 596.318 224.292 595.131 216.882 593.187 C 209.473 591.243 205.312 589.938 199.35 587.343 C 193.389 584.747 187.81 581.316 181.818 577.603 C 175.825 573.89 174.088 572.763 170.129 569.81 C 166.171 566.858 159.564 561.456 154.545 556.174 C 149.526 550.892 145.549 544.917 140.909 538.642 C 136.268 532.366 131.802 526.184 127.273 519.161 Q 122.743 512.139 100 466.564 Z " fill="rgb(255,255,255)"/><path d=" M 538.309 221.754 L 699.996 221.754 L 699.996 365.909 L 538.309 365.909 L 538.309 221.754 Z  M 599.22 256.9 L 599.22 295.645 L 625.95 295.645 L 625.95 295.645 Q 631.755 295.645 636.548 293.35 L 636.548 293.35 L 636.548 293.35 Q 641.34 291.055 644.108 286.735 L 644.108 286.735 L 644.108 286.735 Q 646.875 282.415 646.875 276.34 L 646.875 276.34 L 646.875 276.34 Q 646.875 270.13 644.04 265.81 L 644.04 265.81 L 644.04 265.81 Q 641.205 261.49 636.48 259.195 L 636.48 259.195 L 636.48 259.195 Q 631.755 256.9 626.085 256.9 L 626.085 256.9 L 599.22 256.9 L 599.22 256.9 L 599.22 256.9 Z  M 599.22 339.925 L 586.26 339.925 L 586.26 245.425 L 627.705 245.425 L 627.705 245.425 Q 636.615 245.425 643.905 249.272 L 643.905 249.272 L 643.905 249.272 Q 651.195 253.12 655.515 260.073 L 655.515 260.073 L 655.515 260.073 Q 659.835 267.025 659.835 276.34 L 659.835 276.34 L 659.835 276.34 Q 659.835 285.79 655.043 293.013 L 655.043 293.013 L 655.043 293.013 Q 650.25 300.235 642.15 303.745 L 642.15 303.745 L 652.275 324.265 L 652.275 324.265 Q 653.355 326.425 654.638 327.438 L 654.638 327.438 L 654.638 327.438 Q 655.92 328.45 658.35 328.45 L 658.35 328.45 L 665.1 328.45 L 665.1 339.925 L 656.325 339.925 L 656.325 339.925 Q 651.06 339.925 647.078 337.225 L 647.078 337.225 L 647.078 337.225 Q 643.095 334.525 640.53 329.935 L 640.53 329.935 L 629.19 306.85 L 629.19 306.85 Q 627.84 306.985 626.288 307.053 L 626.288 307.053 L 626.288 307.053 Q 624.735 307.12 623.115 307.12 L 623.115 307.12 L 599.22 307.12 L 599.22 339.925 L 599.22 339.925 L 599.22 339.925 Z " fill-rule="evenodd" fill="rgb(255,255,255)"/></g></svg>